<svg
  xmlns="http://www.w3.org/2000/svg"
  width="85"
  height="85"
  viewBox="0 0 85 85"
  fill="none"
>
  <rect width="85" height="85" fill="#0d131d" />
  <!-- Center logo (74×53) in 85×85 square -->
  <g transform="translate(42.5 42.5) scale(0.7) translate(-37 -26.5)">
    <path
      d="M57.5997 0C54.814 0 52.1184 0.36033 49.5124 1.08075C47.9961 1.5048 46.5494 2.05101 45.1681 2.71322H15.6878C15.4839 2.7133 15.2885 2.80291 15.1443 2.96235C15.0002 3.12178 14.9192 3.33801 14.9191 3.56348V3.77788C14.9191 4.01269 15.0034 4.23788 15.1536 4.40391C15.3037 4.56995 15.5073 4.66324 15.7195 4.66326H41.8101C39.9118 6.02603 38.3582 7.79211 37.1568 9.97117C36.1323 11.8725 35.5221 13.995 35.3124 16.3313H0.762098C0.662008 16.3313 0.562891 16.353 0.470413 16.3954C0.377935 16.4377 0.293908 16.4998 0.223133 16.5781C0.152359 16.6564 0.0962231 16.7493 0.057937 16.8516C0.0196509 16.9539 -3.62035e-05 17.0635 4.99791e-08 17.1742V17.4413C-1.55218e-06 17.5516 0.0196422 17.6609 0.0578076 17.7628C0.095973 17.8647 0.151913 17.9573 0.222435 18.0353C0.292957 18.1133 0.37668 18.1752 0.468821 18.2174C0.560962 18.2596 0.659718 18.2813 0.759451 18.2813H35.2271C35.2419 20.6266 35.7335 22.6878 36.7069 24.4615C37.6954 26.2625 39.0285 27.6705 40.706 28.6857C42.3834 29.7008 44.1504 30.4703 46.0076 30.9943C47.8647 31.5182 49.8271 31.8127 51.8939 31.8782C56.6267 32.1402 58.9929 33.418 58.9929 35.7102C58.9929 37.1511 58.2891 38.3134 56.8813 39.1976C55.4735 40.0817 53.7509 40.5235 51.714 40.5235C45.5735 40.5235 40.5416 38.4443 36.6176 34.2855L29.2487 44.5516C29.498 44.8134 29.7485 45.0582 29.9989 45.3067H20.5792C20.4648 45.3067 20.3515 45.3316 20.2458 45.3801C20.1401 45.4285 20.044 45.4995 19.9631 45.589C19.8822 45.6784 19.8181 45.7847 19.7743 45.9016C19.7305 46.0185 19.708 46.1439 19.708 46.2704C19.708 46.5316 19.8019 46.7835 19.9688 46.9682C20.1358 47.1529 20.3623 47.2567 20.5984 47.2567H32.1416C34.2804 49.0332 36.4607 50.3496 38.6843 51.1824C41.9193 52.394 45.439 53 49.2431 53C52.7178 53 55.848 52.525 58.6337 51.5753C61.4194 50.6584 63.6955 49.4139 65.4628 47.8421C67.2301 46.2703 68.6233 44.5515 69.6418 42.6849C70.6602 40.7856 71.3339 38.7879 71.6634 36.6921C71.8731 35.2513 71.9777 34.0726 71.9777 33.1557C71.9777 31.1254 71.6182 29.3408 70.8994 27.8017C70.1805 26.2626 69.2669 25.0507 68.1586 24.1665C67.0803 23.2496 65.7328 22.4964 64.1153 21.907C62.4977 21.3175 60.9398 20.9246 59.4421 20.7282C57.9744 20.4989 56.342 20.3517 54.5447 20.2862C50.501 20.188 48.4791 18.9597 48.4791 16.602C48.4791 15.1611 49.1227 14.015 50.4108 13.1636C51.6988 12.2795 53.4815 11.8377 55.758 11.8377C59.8916 11.8377 63.2911 13.049 65.957 15.4722L74 6.43471C70.1659 2.14498 64.6988 0 57.5997 0ZM5.02308 30.9635C4.53474 30.9635 4.14125 31.398 4.14125 31.9382C4.14125 32.4783 4.53474 32.9128 5.02308 32.9128H39.3346C39.8229 32.9128 40.2164 32.4783 40.2164 31.9382C40.2164 31.398 39.8229 30.9635 39.3346 30.9635H5.02308ZM12.82 45.3287C12.5882 45.3286 12.3658 45.4305 12.2018 45.6117C12.0378 45.793 11.9456 46.0388 11.9454 46.2953V46.3092C11.9454 46.4365 11.968 46.5626 12.012 46.6803C12.0561 46.7979 12.1206 46.9048 12.202 46.9949C12.2835 47.0849 12.3801 47.1563 12.4865 47.205C12.5929 47.2537 12.7069 47.2788 12.822 47.2787H15.1791C15.2902 47.2788 15.4003 47.2546 15.5029 47.2076C15.6056 47.1606 15.6989 47.0917 15.7775 47.0048C15.8561 46.9179 15.9184 46.8147 15.9609 46.7011C16.0034 46.5875 16.0252 46.4658 16.0252 46.3428V46.3282C16.0251 46.1969 16.0017 46.0669 15.9563 45.9456C15.9108 45.8242 15.8442 45.714 15.7602 45.6212C15.6762 45.5284 15.5765 45.4548 15.4668 45.4046C15.3571 45.3544 15.2396 45.3286 15.1208 45.3287L12.82 45.3287Z"
      fill="#38bdf8"
    />
  </g>
</svg>
